<svg version="1.1" id="Layer_1" xmlns="http://www.w3.org/2000/svg" xmlns:xlink="http://www.w3.org/1999/xlink" x="0px" y="0px"
	 width="100%" viewBox="0 0 756 150" enable-background="new 0 0 756 150" xml:space="preserve">
<path fill="#294E82" opacity="1.000000" stroke="none" 
	d="
M757.000000,136.000000 
	C757.000000,140.986298 757.000000,145.972580 757.000000,151.000000 
	C708.979126,151.000000 660.958191,151.000000 612.383423,150.661835 
	C611.034546,149.551590 610.351257,148.595169 609.427368,148.036163 
	C600.867981,142.857117 592.274353,137.734543 583.674744,132.622314 
	C580.447510,130.703857 577.178406,128.855774 574.095825,126.589317 
	C574.504395,125.258720 574.953369,124.314720 574.954834,123.370033 
	C574.971802,112.407356 574.924500,101.444565 574.871033,90.481911 
	C574.869629,90.191597 574.606384,89.902557 574.415894,89.511551 
	C573.078918,89.511551 571.707520,89.511551 569.900085,89.511551 
	C569.900085,100.403664 569.900085,110.973831 569.900085,121.686783 
	C567.751282,121.686783 566.046143,121.686783 564.000000,121.686783 
	C564.000000,116.093277 564.000000,110.801147 564.000000,105.509010 
	C564.000000,100.231995 564.000000,94.954971 564.000000,89.447083 
	C562.106140,89.447083 560.719788,89.447083 558.977539,89.447083 
	C558.977539,93.483162 559.000427,97.268677 558.971252,101.053787 
	C558.940491,105.037491 558.859924,109.020805 558.449707,112.975311 
	C553.892883,110.956421 549.687500,108.966499 545.399048,106.530670 
	C545.315979,102.537155 545.315979,98.989548 545.315979,95.377693 
	C548.404846,95.227325 550.979309,95.101990 553.638000,94.972557 
	C553.638000,92.918915 553.638000,91.226372 553.638000,89.369423 
	C551.208923,89.202408 549.103455,89.057648 546.971924,88.558769 
	C546.649841,87.446487 546.562378,86.463173 546.025024,85.965965 
	C541.895203,82.144386 537.442566,78.643929 533.550293,74.600754 
	C529.118042,69.996712 525.161743,64.934479 521.440979,59.980404 
	C524.915283,59.889427 527.947205,59.889427 532.368652,59.889427 
	C525.577209,55.498692 525.184692,54.239868 527.001587,44.217979 
	C529.754333,46.025700 532.371338,47.239716 534.310120,49.144100 
	C536.781860,51.571922 538.598389,54.651196 540.892212,57.279671 
	C543.785645,60.595253 546.100464,60.977463 549.706726,59.395145 
	C545.350342,54.468590 540.901794,49.437710 536.460815,44.415470 
	C537.427063,43.689392 538.617432,42.874332 539.719177,41.953320 
	C544.593323,37.878681 543.797791,30.310053 537.726257,28.961063 
	C531.072754,27.482779 524.009338,27.849916 517.509094,27.437267 
	C518.895813,30.652248 520.532227,32.838474 520.689636,35.126453 
	C521.088623,40.924995 521.132996,46.794937 520.650940,52.580601 
	C520.490845,54.502747 518.296387,56.255398 516.878906,57.767708 
	C514.753723,55.964924 512.781433,54.479969 510.683655,52.617226 
	C511.378204,50.139278 512.198303,48.039127 513.001160,45.983017 
	C508.857758,45.983017 504.582916,45.983017 499.356049,45.983017 
	C500.616669,46.937149 500.946045,47.362000 501.359222,47.471981 
	C505.482452,48.569603 506.309265,51.881157 504.705292,54.795876 
	C503.876282,56.302307 500.287537,56.933197 498.011963,56.802715 
	C496.093353,56.692703 494.007416,55.206070 492.454285,53.816151 
	C487.660522,49.526104 486.141602,39.638683 489.300995,34.921181 
	C492.289062,30.459541 498.250854,29.790140 505.655975,32.705715 
	C506.815643,33.162292 508.549469,32.160564 510.017822,31.833149 
	C509.115265,30.460579 508.277496,27.962656 507.299164,27.906340 
	C502.556885,27.633362 497.776917,28.015602 492.940063,27.817978 
	C492.156281,26.384504 491.398895,25.324749 490.736206,24.208759 
	C486.146454,16.479038 481.576385,8.737646 477.000000,0.999995 
	C494.354218,1.000000 511.708466,1.000000 529.601257,1.356383 
	C531.154236,3.751104 531.841553,6.053483 533.237915,7.783429 
	C540.435974,16.700817 547.815735,25.471428 555.065918,34.661461 
	C554.501587,39.706203 552.945740,44.567303 553.722900,49.021339 
	C555.406494,58.670620 568.741455,64.769753 580.183716,57.259567 
	C585.231934,61.783878 589.820129,66.402122 595.018921,70.180153 
	C601.662842,75.008347 609.408203,78.457214 615.556458,83.793671 
	C622.020752,89.404419 629.524902,92.946487 636.656738,97.246796 
	C639.455261,98.934212 642.713196,99.840523 645.684143,101.264870 
	C652.351746,104.461540 658.890137,107.939857 665.635864,110.957603 
	C670.680786,113.214500 675.959045,114.953812 681.148865,116.881874 
	C687.282349,119.160492 693.330261,121.746315 699.598755,123.566956 
	C709.618896,126.477242 719.724609,129.168823 729.917603,131.385071 
	C738.856934,133.328766 747.965942,134.492035 757.000000,136.000000 
M587.816284,112.643761 
	C588.877258,116.485077 590.101440,120.290688 590.951843,124.178070 
	C591.750183,127.826965 593.554993,128.685852 597.015930,127.154541 
	C595.693359,121.999130 594.426941,117.062653 593.482971,113.383224 
	C595.108032,110.632385 596.842590,108.973831 597.002869,107.174995 
	C597.414490,102.555130 597.409241,97.845192 596.953247,93.232292 
	C596.811035,91.793213 594.815552,89.562737 593.462585,89.399406 
	C589.291016,88.895813 585.020020,89.215721 581.305176,89.215721 
	C581.305176,102.369843 581.305176,114.946510 581.305176,127.911369 
	C583.222229,127.724091 584.595825,127.589897 586.195374,127.433624 
	C586.195374,124.496597 586.069092,122.002655 586.230896,119.527550 
	C586.392761,117.051872 586.842651,114.595024 587.816284,112.643761 
M606.727722,89.378143 
	C605.294556,89.495239 603.861389,89.612335 602.592896,89.715973 
	C602.592896,102.636383 602.592896,115.077187 602.592896,127.779633 
	C607.125427,127.779633 611.360291,127.779633 615.754272,127.779633 
	C615.754272,125.801239 615.754272,124.076416 615.754272,122.180176 
	C613.050659,122.012619 610.616455,121.861763 607.761230,121.684814 
	C607.761230,118.268120 607.761230,115.082123 607.761230,111.899582 
	C609.497925,111.654449 611.113586,111.426392 613.045532,111.153694 
	C612.955750,109.366455 612.876953,107.798386 612.799805,106.262451 
	C610.970642,106.010918 609.546631,105.815094 608.037292,105.607544 
	C608.037292,102.084114 608.037292,98.862053 608.037292,95.535469 
	C610.842468,95.322556 613.274902,95.137939 615.796509,94.946541 
	C615.796509,93.080132 615.796509,91.479355 615.796509,89.377907 
	C612.915833,89.377907 610.279175,89.377907 606.727722,89.378143 
z"/>
<path fill="#2C5084" opacity="1.000000" stroke="none" 
	d="
M757.000000,135.531342 
	C747.965942,134.492035 738.856934,133.328766 729.917603,131.385071 
	C719.724609,129.168823 709.618896,126.477242 699.598755,123.566956 
	C693.330261,121.746315 687.282349,119.160492 681.148865,116.881874 
	C675.959045,114.953812 670.680786,113.214500 665.635864,110.957603 
	C658.890137,107.939857 652.351746,104.461540 645.684143,101.264870 
	C642.713196,99.840523 639.455261,98.934212 636.656738,97.246796 
	C629.524902,92.946487 622.020752,89.404419 615.556458,83.793671 
	C609.408203,78.457214 601.662842,75.008347 595.018921,70.180153 
	C589.820129,66.402122 585.231934,61.783878 580.332642,56.955730 
	C586.251709,50.034019 587.540039,42.535912 583.892883,35.420685 
	C580.944519,29.668591 574.074158,25.633972 567.209167,27.317223 
	C562.874023,28.380182 559.137268,31.884157 555.132141,34.293240 
	C547.815735,25.471428 540.435974,16.700817 533.237915,7.783429 
	C531.841553,6.053483 531.154236,3.751104 530.069946,1.356383 
	C550.687561,1.000000 571.375122,1.000000 592.554993,1.359724 
	C593.501526,2.761738 593.702026,4.059099 594.451477,4.804564 
	C599.029602,9.358445 603.914001,13.616792 608.324280,18.322350 
	C610.904724,21.075560 612.794861,24.475735 614.635498,27.674400 
	C614.001343,28.487448 613.355713,29.325809 613.535950,29.908928 
	C613.844849,30.908318 615.393127,32.027409 615.167358,32.611992 
	C612.753418,38.861599 610.093140,45.016026 607.042053,52.289299 
	C604.529724,46.172558 602.272888,41.315434 600.575317,36.270142 
	C599.752197,33.823811 599.977295,31.024788 599.724487,28.349873 
	C596.956421,28.349873 593.118225,28.349873 589.705750,28.349873 
	C591.278625,30.914103 593.055115,33.235958 594.227356,35.830799 
	C597.500977,43.076950 600.477966,50.456718 603.699280,57.727383 
	C604.154907,58.755737 605.319336,59.470066 606.155701,60.329735 
	C606.902588,59.425743 607.913330,58.634266 608.354431,57.599903 
	C611.732666,49.676323 614.869751,41.646816 618.402893,33.794731 
	C619.187805,32.050377 621.247559,30.879671 622.829590,29.821095 
	C625.003174,31.463514 627.067505,32.729675 629.248901,34.452263 
	C629.390930,39.565765 629.351379,44.224358 629.460327,48.879478 
	C629.556458,52.991417 629.961487,57.160206 624.744995,59.191338 
	C628.132324,59.582031 631.193115,59.569702 634.253723,59.585445 
	C637.413147,59.601696 640.576782,59.552116 643.730957,59.696793 
	C649.771606,59.973850 651.630859,58.278786 652.241333,52.098061 
	C654.077820,52.891479 655.559387,53.621960 657.034058,54.366024 
	C664.732788,58.250515 672.286011,62.465183 680.167542,65.933975 
	C688.162354,69.452637 696.471069,72.261902 704.660889,75.332458 
	C710.500671,77.521935 716.224609,80.286629 722.259338,81.632927 
	C733.741577,84.194527 745.409302,85.924629 757.000000,88.000000 
	C757.000000,103.687561 757.000000,119.375122 757.000000,135.531342 
z"/>
<path fill="#103973" opacity="1.000000" stroke="none" 
	d="
M47.000000,1.000000 
	C67.020897,1.000000 87.041786,1.000000 107.539581,1.403300 
	C111.439278,13.416568 114.878677,25.021677 118.278992,36.638229 
	C120.500557,44.227787 122.665443,51.833931 124.522980,59.266510 
	C121.549301,59.236301 118.908371,59.372234 115.421165,59.551727 
	C119.660301,69.251099 122.887199,77.622719 126.901314,85.598106 
	C133.723434,99.152565 141.736115,112.069565 154.548492,120.795883 
	C161.792053,125.729378 165.607895,131.461807 164.009384,140.293900 
	C163.877380,141.023224 164.188614,141.832794 164.360703,143.095123 
	C170.076355,143.095123 175.536514,143.095123 181.071930,143.439514 
	C182.098145,146.189270 183.049072,148.594635 184.000000,151.000000 
	C156.312439,151.000000 128.624878,151.000000 100.461411,150.611938 
	C99.556824,148.813705 99.257408,147.348083 98.679771,146.001846 
	C91.800827,129.969788 84.719170,114.022507 78.024651,97.914200 
	C73.127350,86.130318 68.488319,74.225777 64.174156,62.216953 
	C60.531361,52.076977 57.219662,41.794106 54.316952,31.419050 
	C51.508980,21.382603 49.410255,11.147721 47.000000,1.000000 
z"/>
<path fill="#1E457C" opacity="1.000000" stroke="none" 
	d="
M287.000000,1.000000 
	C304.687561,1.000000 322.375122,1.000000 340.604309,1.357836 
	C342.679108,5.027101 344.328918,8.290361 345.720276,11.660321 
	C348.340454,18.006466 350.711365,24.457649 353.444031,30.753122 
	C353.896301,31.795048 355.659393,32.267994 356.925232,33.461498 
	C357.091797,39.196693 357.412354,44.489338 357.110565,49.746254 
	C356.925842,52.963894 355.785980,56.126690 355.069885,59.337433 
	C357.559235,59.337433 361.181976,59.337433 364.804718,59.337433 
	C360.478058,57.687927 360.210724,54.584698 361.272430,51.030319 
	C362.652130,51.813114 363.998169,52.356056 364.637146,53.352444 
	C366.948761,56.957008 368.915894,60.781708 371.209930,64.398453 
	C375.265411,70.792290 379.303955,77.208771 383.676910,83.384018 
	C385.676270,86.207352 388.453430,88.479897 390.962036,91.464142 
	C391.062134,102.588081 391.196075,113.251938 391.031982,123.911201 
	C390.972015,127.805931 392.552002,128.430344 396.232880,127.356720 
	C396.232880,122.196045 396.232880,117.111000 396.232880,111.808968 
	C398.345154,111.808968 399.979187,111.808968 401.974060,111.906158 
	C404.738922,113.003258 407.142944,114.003174 409.631714,115.460129 
	C409.716492,119.784721 409.716492,123.652267 409.716492,127.854660 
	C411.806580,127.854660 413.243713,127.854660 415.035400,127.943825 
	C416.120178,128.418533 417.018402,128.645538 417.554901,129.213943 
	C423.482819,135.494751 429.383942,141.801895 435.196686,148.188950 
	C435.784424,148.834778 435.747192,150.049347 436.000000,151.000000 
	C414.312439,151.000000 392.624878,151.000000 370.399902,150.653473 
	C365.422607,144.208817 361.091705,138.026459 356.481262,132.060104 
	C354.953247,130.082748 352.706116,128.661118 350.767334,126.544464 
	C352.125763,113.966042 353.504547,101.828545 354.882080,89.702370 
	C349.254852,88.934334 349.527222,88.954353 349.158630,93.969696 
	C348.804718,98.785606 347.805298,103.554092 347.089508,108.343414 
	C345.374634,103.254326 344.869995,98.174927 343.911285,93.182724 
	C343.628998,91.712578 342.061768,90.489182 341.083435,89.152695 
	C340.042175,90.457924 338.369263,91.635536 338.075104,93.091705 
	C337.093048,97.952362 336.604919,102.912804 335.927551,107.835007 
	C335.442474,107.806236 334.957428,107.777466 334.472382,107.748695 
	C333.631104,101.629761 332.789795,95.510826 331.942139,89.345551 
	C329.967499,89.222076 328.490082,89.129700 326.986877,88.664474 
	C326.073181,86.349960 325.255768,84.372269 324.284973,82.472977 
	C320.443115,74.956551 316.553131,67.464714 312.904144,59.714371 
	C314.873413,58.594398 316.619568,57.723797 317.206390,57.431221 
	C318.244476,52.885311 319.037598,49.412106 319.824768,45.964966 
	C316.411621,45.964966 312.177063,45.964966 307.195801,45.964966 
	C308.226227,46.905655 308.521790,47.387569 308.927399,47.512642 
	C312.562347,48.633434 313.562012,51.285255 312.513519,54.542480 
	C311.324219,58.237007 308.074890,57.609718 305.356964,56.932735 
	C299.751221,55.536472 296.802429,51.420361 295.592529,46.054855 
	C294.540741,41.390392 294.210358,36.568043 298.395050,33.152657 
	C302.799835,29.557634 307.926575,30.222961 312.503052,32.591213 
	C316.594666,34.708527 317.370087,32.813419 318.023926,29.308794 
	C310.754242,25.338633 303.858887,26.922684 296.927124,29.652084 
	C295.165863,25.352980 293.229950,21.499563 291.851624,17.456087 
	C290.008087,12.047869 288.596863,6.492296 287.000000,1.000000 
M366.908447,95.222763 
	C369.189362,95.222763 371.470245,95.222763 373.948975,95.222763 
	C373.948975,93.102089 373.948975,91.556602 373.948975,89.760681 
	C369.559296,89.760681 365.489563,89.760681 361.179504,89.760681 
	C361.179504,102.547935 361.179504,115.072365 361.179504,127.722389 
	C365.547241,127.722389 369.614624,127.722389 373.672729,127.722389 
	C373.672729,125.714996 373.672729,123.991364 373.672729,122.174377 
	C370.949615,122.026154 368.545898,121.895317 366.118317,121.763176 
	C366.118317,118.327141 366.118317,115.384338 366.118317,112.130409 
	C370.304779,112.384674 373.196259,111.374863 371.475037,106.250237 
	C369.665375,106.063110 367.930969,105.883766 366.028503,105.687050 
	C366.028503,102.197372 366.028503,99.057777 366.029968,95.675674 
	C366.029968,95.675674 366.015076,95.433617 366.908447,95.222763 
M348.008698,31.572481 
	C349.237732,28.141375 347.920105,27.115503 344.489166,27.459507 
	C341.188080,27.790491 337.843567,27.718176 334.517365,27.760593 
	C331.146484,27.803581 327.774628,27.770079 324.403229,27.770079 
	C330.721832,32.499310 328.141510,38.731167 328.095490,43.983994 
	C328.049164,49.268040 331.012756,55.729713 323.637573,59.442692 
	C331.144104,59.867119 338.237518,59.984432 345.324402,59.819553 
	C349.087189,59.732014 350.975952,56.609379 350.484375,53.422321 
	C346.323120,54.624245 342.091949,56.097248 337.737823,56.918751 
	C336.713623,57.111988 334.400726,55.257748 334.197784,54.083271 
	C333.682373,51.100620 334.026489,47.969433 334.026489,43.986668 
	C337.731018,44.994488 340.485901,45.743954 343.642914,46.602825 
	C344.421265,44.791710 345.323212,42.693119 346.124878,40.827805 
	C341.899994,41.396828 338.256134,41.887592 333.998535,42.461021 
	C333.998535,39.802700 333.990265,38.009727 334.000092,36.216854 
	C334.028625,30.994934 335.931854,29.319059 340.991638,30.522581 
	C342.637177,30.913992 344.002106,32.377739 345.620239,33.050884 
	C346.170746,33.279896 347.104340,32.588013 348.008698,31.572481 
z"/>
<path fill="#1B427A" opacity="1.000000" stroke="none" 
	d="
M286.531342,1.000000 
	C288.596863,6.492296 290.008087,12.047869 291.851624,17.456087 
	C293.229950,21.499563 295.165863,25.352980 296.758728,29.942532 
	C290.347504,36.325916 288.299103,42.729153 290.912720,49.604115 
	C293.652893,56.811890 299.481415,59.751789 306.774658,60.256977 
	C308.727295,60.392231 310.711395,60.073864 312.681030,59.963741 
	C316.553131,67.464714 320.443115,74.956551 324.284973,82.472977 
	C325.255768,84.372269 326.073181,86.349960 326.944458,89.099670 
	C328.267517,100.603622 329.670654,111.292099 330.923279,121.998184 
	C331.689178,128.544174 331.840790,128.728470 338.709167,127.192932 
	C339.339355,123.353218 339.971985,119.498505 340.604614,115.643791 
	C340.943085,115.701546 341.281525,115.759300 341.619995,115.817047 
	C342.198059,119.697716 342.776093,123.578384 343.457062,128.149902 
	C346.092407,127.731270 348.440094,127.358337 350.787750,126.985397 
	C352.706116,128.661118 354.953247,130.082748 356.481262,132.060104 
	C361.091705,138.026459 365.422607,144.208817 369.931244,150.653473 
	C349.979095,151.000000 329.958221,151.000000 309.390808,150.657516 
	C303.056976,140.882309 297.201111,131.490814 291.500916,122.005730 
	C285.313782,111.710342 279.058075,101.446281 273.232269,90.946625 
	C268.412659,82.260429 264.175262,73.251221 259.748291,64.084389 
	C261.279388,61.225204 260.319244,59.614830 257.814331,58.198265 
	C256.014038,52.371513 254.335480,46.910503 252.346573,41.564972 
	C247.305298,28.015694 242.124771,14.518221 237.000000,0.999999 
	C253.354233,1.000000 269.708466,1.000000 286.531342,1.000000 
z"/>
<path fill="#0C3671" opacity="1.000000" stroke="none" 
	d="
M46.531342,1.000000 
	C49.410255,11.147721 51.508980,21.382603 54.316952,31.419050 
	C57.219662,41.794106 60.531361,52.076977 64.174156,62.216953 
	C68.488319,74.225777 73.127350,86.130318 78.024651,97.914200 
	C84.719170,114.022507 91.800827,129.969788 98.679771,146.001846 
	C99.257408,147.348083 99.556824,148.813705 99.992752,150.611938 
	C84.645775,151.000000 69.291542,151.000000 53.468338,150.582703 
	C52.343010,147.464203 51.991356,144.640900 50.968067,142.086685 
	C48.706993,136.442902 45.950726,130.997726 43.683270,125.356239 
	C40.227070,116.757141 36.927299,108.092331 33.717148,99.397820 
	C28.724730,85.876137 23.729874,72.352310 19.012190,58.733730 
	C17.127626,53.293545 16.030611,47.584145 14.479468,42.023975 
	C12.331645,34.324951 10.105006,26.647806 7.889655,18.967772 
	C6.646376,14.657655 7.010407,9.321698 1.000000,8.000000 
	C1.000000,5.686103 1.000000,3.372207 1.000000,1.000000 
	C16.020851,1.000000 31.041767,1.000000 46.531342,1.000000 
z"/>
<path fill="#305386" opacity="1.000000" stroke="none" 
	d="
M629.131897,33.995834 
	C627.067505,32.729675 625.003174,31.463514 622.916016,29.432056 
	C620.260681,28.306133 617.628113,27.945501 614.995544,27.584873 
	C612.794861,24.475735 610.904724,21.075560 608.324280,18.322350 
	C603.914001,13.616792 599.029602,9.358445 594.451477,4.804564 
	C593.702026,4.059099 593.501526,2.761738 593.023682,1.359724 
	C615.020874,1.000000 637.041809,1.000000 659.611267,1.332368 
	C660.898499,2.521560 661.487122,3.611655 662.399475,4.198368 
	C669.767029,8.936122 677.045471,13.843153 684.653564,18.166193 
	C690.532532,21.506674 696.688721,24.497450 703.004822,26.899233 
	C713.650391,30.947388 724.434875,34.685093 735.326416,38.011642 
	C742.398987,40.171806 749.765320,41.370514 757.000000,42.999996 
	C757.000000,56.354229 757.000000,69.708458 756.574097,83.521317 
	C745.784973,82.285950 735.412170,80.646469 725.070007,78.832268 
	C723.702637,78.592415 722.530090,77.377739 721.197571,76.766800 
	C719.729248,76.093567 718.213989,75.475273 716.660645,75.043488 
	C710.876038,73.435471 704.857605,72.440880 699.317322,70.235352 
	C691.167969,66.991219 683.361694,62.888187 675.394104,59.183704 
	C665.381104,54.528206 655.127258,50.303238 646.764221,42.527069 
	C646.302979,41.729694 645.710266,40.875526 645.219482,40.930553 
	C641.943909,41.297848 638.690186,41.859180 634.070190,42.565193 
	C635.148987,37.678944 634.786621,32.942757 636.879761,31.258970 
	C640.470337,28.370586 644.834717,30.616854 648.404480,34.560020 
	C648.959778,31.911926 649.345276,30.073744 649.792480,27.941208 
	C641.482300,27.941208 633.711853,27.941208 626.171692,27.941208 
	C627.258484,30.164095 628.195190,32.079964 629.131897,33.995834 
z"/>
<path fill="#264B80" opacity="1.000000" stroke="none" 
	d="
M476.531372,0.999995 
	C481.576385,8.737646 486.146454,16.479038 490.736206,24.208759 
	C491.398895,25.324749 492.156281,26.384504 492.719879,28.067154 
	C483.275238,33.888184 479.837463,43.407894 484.271729,51.642841 
	C488.509521,59.512878 499.405334,62.357769 508.192993,58.447170 
	C511.200500,57.108780 510.783478,55.204185 510.809235,52.995010 
	C512.781433,54.479969 514.753723,55.964924 516.889038,58.141708 
	C518.367676,59.246159 519.683105,59.658775 520.998596,60.071388 
	C525.161743,64.934479 529.118042,69.996712 533.550293,74.600754 
	C537.442566,78.643929 541.895203,82.144386 546.025024,85.965965 
	C546.562378,86.463173 546.649841,87.446487 546.577942,88.637642 
	C541.522949,88.761566 540.209778,91.342514 540.242737,95.565941 
	C540.306274,103.709526 540.115051,111.855095 539.690308,119.925270 
	C536.834473,117.811150 534.439392,115.592575 531.769348,113.778839 
	C528.661377,111.667625 525.312561,109.910805 521.957520,107.606728 
	C520.003174,106.501549 518.159668,105.789833 516.042603,104.972511 
	C516.042603,101.933121 516.042603,98.700142 516.042603,94.967377 
	C518.760437,94.967377 521.339905,94.967377 524.262939,94.967377 
	C524.085144,92.891533 523.952271,91.339409 523.793396,89.483864 
	C520.035767,89.483864 516.704956,89.289841 513.421509,89.599113 
	C512.403137,89.695038 511.513428,91.157310 510.215881,91.988205 
	C508.279419,91.655327 506.691864,91.328262 505.000641,90.613922 
	C503.072449,89.802307 501.247894,89.377968 499.630798,89.001877 
	C498.643524,96.450340 497.780426,102.961960 496.917358,109.473579 
	C495.475586,104.530418 494.947205,99.567368 494.823273,94.594238 
	C494.730652,90.878357 491.684326,87.638481 489.400360,89.477951 
	C488.047272,90.567696 487.510742,93.041153 487.204254,94.986511 
	C486.478607,99.592773 486.109375,104.255188 485.596069,108.894905 
	C485.198456,108.866379 484.800842,108.837852 484.403229,108.809334 
	C483.511200,102.371078 482.619141,95.932823 481.727600,89.498047 
	C479.699982,89.498047 477.996918,89.498047 476.818085,89.498047 
	C476.818085,92.578033 476.818085,95.291489 476.496735,97.918259 
	C472.454437,93.891914 468.708344,89.975632 465.021454,86.004356 
	C462.593109,83.388680 460.111816,80.802521 457.909637,78.002319 
	C455.904541,75.452721 454.313507,72.582123 452.413940,69.943733 
	C450.008911,66.603241 447.476410,63.354515 445.324219,59.928440 
	C448.819580,58.266487 450.344696,55.861980 449.999725,53.231018 
	C445.835236,54.538651 441.779083,56.073025 437.591858,57.039867 
	C434.551178,57.741982 432.982178,56.088169 433.042633,52.827927 
	C433.144470,47.335396 432.835541,41.825390 433.167603,36.351143 
	C433.334198,33.605267 434.532532,30.921978 435.297760,28.086372 
	C431.906464,28.086372 427.471619,28.086372 423.006775,27.710238 
	C422.287415,25.678688 421.696411,23.973730 420.891846,22.376362 
	C417.294495,15.234142 413.636261,8.122606 410.000000,0.999994 
	C432.020905,1.000000 454.041779,1.000000 476.531372,0.999995 
M453.371490,29.383104 
	C454.440247,31.432693 456.189484,33.404678 456.433960,35.548271 
	C456.920563,39.815151 456.525879,44.177277 456.595947,48.498417 
	C456.664215,52.706898 457.342285,57.106110 451.907806,59.364799 
	C459.348907,59.840996 466.413361,60.006481 473.464752,59.775002 
	C477.305725,59.648918 479.144135,56.483986 478.317780,52.239182 
	C476.989807,53.233624 475.812164,54.720505 474.353119,55.086872 
	C470.918274,55.949379 467.250641,56.926834 463.895569,56.417965 
	C462.913452,56.269001 462.574097,51.292923 462.127533,48.499355 
	C461.954865,47.419064 462.301941,46.255688 462.502106,44.213242 
	C465.729919,45.001732 468.609222,45.705097 471.824127,46.490433 
	C472.575684,44.822765 473.479401,42.817528 474.362854,40.857189 
	C470.119324,41.388645 466.364838,41.858852 461.043182,42.525330 
	C462.224823,37.719612 461.976318,32.888004 464.172638,31.155294 
	C467.540436,28.498356 471.954010,30.397524 475.307678,34.642841 
	C475.945740,32.056709 476.394440,30.238228 476.999451,27.786106 
	C470.485657,27.786106 464.426361,27.715364 458.370605,27.829222 
	C456.554932,27.863359 454.748932,28.412497 453.371490,29.383104 
z"/>
<path fill="#153D76" opacity="1.000000" stroke="none" 
	d="
M124.855721,59.432648 
	C122.665443,51.833931 120.500557,44.227787 118.278992,36.638229 
	C114.878677,25.021677 111.439278,13.416568 108.008240,1.403300 
	C135.020889,1.000000 162.041794,1.000000 189.531738,1.426041 
	C190.333832,4.897317 190.666870,7.942551 190.538132,11.021904 
	C188.412811,11.033732 186.669571,10.676164 185.099960,11.049169 
	C179.349564,12.415686 173.203461,13.183077 168.139694,15.909488 
	C165.718964,17.212851 165.392502,22.405830 164.117203,25.836983 
	C164.060638,25.989145 164.046585,26.200180 163.936707,26.283264 
	C159.024124,29.997999 161.280594,34.936989 161.500244,39.605690 
	C161.573059,41.153538 161.001129,43.032612 160.071838,44.270802 
	C157.181854,48.121395 156.150955,54.674389 159.525314,57.043518 
	C163.222534,59.639332 163.382675,63.276573 164.905823,66.614693 
	C166.271408,69.607483 167.824753,72.649879 169.913681,75.154640 
	C180.689285,88.075256 196.953995,88.189781 206.029770,74.489174 
	C208.123245,71.328880 209.936340,67.982834 212.119873,65.007416 
	C213.249023,66.980865 214.145126,68.664818 215.022964,70.358246 
	C218.640076,77.336021 222.251617,84.316681 225.734589,91.639069 
	C222.409363,93.955444 219.320694,96.136650 215.987137,97.837959 
	C213.241470,99.239227 210.045181,99.769341 207.327209,101.210869 
	C197.791992,106.268082 191.383530,113.969383 188.531738,125.563850 
	C184.089310,109.298935 173.313950,101.098427 158.608383,96.969917 
	C156.195572,96.292542 153.592087,94.640106 152.094910,92.666077 
	C147.626419,86.774345 143.368301,80.674759 139.587921,74.323128 
	C135.861176,68.061638 133.519577,60.705597 124.855721,59.432648 
z"/>
<path fill="#23497E" opacity="1.000000" stroke="none" 
	d="
M444.998871,60.066219 
	C447.476410,63.354515 450.008911,66.603241 452.413940,69.943733 
	C454.313507,72.582123 455.904541,75.452721 457.909637,78.002319 
	C460.111816,80.802521 462.593109,83.388680 465.021454,86.004356 
	C468.708344,89.975632 472.454437,93.891914 476.686035,98.283432 
	C478.424469,106.494095 479.778564,114.235634 480.841217,122.016960 
	C481.739807,128.596786 481.702728,128.693878 488.661438,127.184166 
	C489.170776,123.838020 489.688995,120.433617 490.405762,117.146606 
	C490.998840,117.502739 491.393463,117.741486 491.880402,118.404205 
	C492.390778,121.699158 492.808807,124.570137 493.404694,128.662598 
	C496.207153,127.662415 498.542053,126.829109 501.254150,126.004662 
	C504.817017,128.239120 508.127472,130.308044 511.161591,132.723969 
	C516.923096,137.311569 520.543335,144.482956 528.351624,146.715286 
	C529.237000,146.968414 529.466431,149.516235 530.000000,151.000000 
	C511.979095,151.000000 493.958221,151.000000 475.462341,150.622162 
	C472.719086,147.202103 470.548370,144.080688 468.159790,141.135986 
	C464.492615,136.615082 460.675629,132.215698 457.160889,127.464417 
	C457.960297,126.189522 458.996979,125.220528 459.008423,124.239578 
	C459.128723,113.931992 459.219513,103.618546 458.916809,93.318535 
	C458.878967,92.030014 456.638397,89.914307 455.217560,89.729897 
	C451.353973,89.228424 447.382599,89.557693 442.872711,89.557693 
	C442.872711,97.773987 442.872711,105.387634 442.557495,112.917747 
	C440.551697,111.556709 438.861084,110.279190 437.101624,108.537773 
	C436.985992,102.062798 436.939178,96.051735 437.098755,89.781929 
	C436.641754,87.627731 436.368866,85.454269 435.250153,83.882988 
	C429.091736,75.233070 422.800537,66.674339 416.391815,58.207783 
	C414.182526,55.289104 411.503662,52.725861 408.944885,49.540001 
	C408.850433,43.011578 408.850433,36.943409 408.850433,29.629791 
	C413.207642,31.053930 416.422791,32.104782 419.853729,33.226173 
	C420.214783,31.696531 420.691467,29.676844 421.298004,27.107079 
	C412.514313,27.107079 404.257568,27.107079 395.976074,26.729189 
	C393.544983,20.779182 391.048706,15.243470 388.770355,9.619486 
	C387.640289,6.830029 386.910736,3.878310 386.000000,0.999998 
	C393.687592,1.000000 401.375153,1.000000 409.531372,0.999994 
	C413.636261,8.122606 417.294495,15.234142 420.891846,22.376362 
	C421.696411,23.973730 422.287415,25.678688 423.127960,28.064964 
	C426.835480,29.967159 427.817627,32.547268 427.635773,36.077271 
	C427.430725,40.057583 427.624603,44.057053 427.582153,48.047523 
	C427.536835,52.306206 428.757568,57.073483 422.452728,58.966965 
	C422.736755,59.333382 423.020752,59.699802 423.304779,60.066219 
	C430.536133,60.066219 437.767517,60.066219 444.998871,60.066219 
z"/>
<path fill="#0A3470" opacity="1.000000" stroke="none" 
	d="
M1.000000,8.468657 
	C7.010407,9.321698 6.646376,14.657655 7.889655,18.967772 
	C10.105006,26.647806 12.331645,34.324951 14.479468,42.023975 
	C16.030611,47.584145 17.127626,53.293545 19.012190,58.733730 
	C23.729874,72.352310 28.724730,85.876137 33.717148,99.397820 
	C36.927299,108.092331 40.227070,116.757141 43.683270,125.356239 
	C45.950726,130.997726 48.706993,136.442902 50.968067,142.086685 
	C51.991356,144.640900 52.343010,147.464203 52.999680,150.582703 
	C35.705639,151.000000 18.411276,151.000000 1.000000,151.000000 
	C1.000000,103.645836 1.000000,56.291573 1.000000,8.468657 
z"/>
<path fill="#184078" opacity="1.000000" stroke="none" 
	d="
M259.679932,64.385139 
	C264.175262,73.251221 268.412659,82.260429 273.232269,90.946625 
	C279.058075,101.446281 285.313782,111.710342 291.500916,122.005730 
	C297.201111,131.490814 303.056976,140.882309 308.922119,150.657516 
	C292.645782,151.000000 276.291534,151.000000 259.462219,150.620331 
	C257.370453,147.251480 255.867004,144.194153 254.116806,141.285294 
	C247.731476,130.672867 241.263794,120.110016 234.983551,109.248856 
	C236.742340,107.112457 238.776215,105.479866 239.876526,103.362206 
	C246.595398,90.431023 253.102325,77.389725 259.679932,64.385139 
z"/>
<path fill="#194078" opacity="1.000000" stroke="none" 
	d="
M190.999893,10.987786 
	C190.666870,7.942551 190.333832,4.897317 190.000397,1.426041 
	C205.354233,1.000000 220.708450,1.000000 236.531342,0.999999 
	C242.124771,14.518221 247.305298,28.015694 252.346573,41.564972 
	C254.335480,46.910503 256.014038,52.371513 257.420959,58.131508 
	C251.219772,59.784325 245.237335,60.173187 241.658966,66.382301 
	C236.753586,74.893967 231.162460,83.010429 225.865234,91.296265 
	C222.251617,84.316681 218.640076,77.336021 215.022964,70.358246 
	C214.145126,68.664818 213.249023,66.980865 212.115051,64.633354 
	C212.840149,62.201565 213.478104,60.095894 214.849655,58.723164 
	C218.072281,55.497780 219.557693,51.169720 217.176727,47.927704 
	C213.640549,43.112736 214.841476,38.379871 214.905472,33.417519 
	C214.937286,30.949467 214.623123,28.435760 214.132126,26.010181 
	C212.858032,19.715843 208.640808,16.361660 202.222519,16.148041 
	C201.024673,16.108171 199.726700,15.872668 198.673004,15.337497 
	C196.054382,14.007533 193.550095,12.452460 190.999893,10.987786 
z"/>
<path fill="#21477D" opacity="1.000000" stroke="none" 
	d="
M437.170471,109.001678 
	C438.861084,110.279190 440.551697,111.556709 442.632294,113.379364 
	C443.022308,118.492737 443.022308,123.060974 443.022308,127.764778 
	C448.080444,127.764778 452.501312,127.764778 456.922180,127.764771 
	C460.675629,132.215698 464.492615,136.615082 468.159790,141.135986 
	C470.548370,144.080688 472.719086,147.202103 474.993713,150.622162 
	C462.312439,151.000000 449.624878,151.000000 436.468658,151.000000 
	C435.747192,150.049347 435.784424,148.834778 435.196686,148.188950 
	C429.383942,141.801895 423.482819,135.494751 417.554901,129.213943 
	C417.018402,128.645538 416.120178,128.418533 415.099487,127.488388 
	C414.809021,114.524673 414.809021,102.105576 414.809021,89.414925 
	C412.865753,89.414925 411.309052,89.414925 409.546967,89.414925 
	C409.546967,98.117828 409.546967,106.560455 409.546967,115.003082 
	C407.142944,114.003174 404.738922,113.003258 402.128082,111.497253 
	C401.921265,109.396309 401.921265,107.801460 401.921265,106.186531 
	C399.917358,105.848595 398.206573,105.560081 396.381775,105.252350 
	C396.381775,101.707321 396.381775,98.494400 396.381775,95.196419 
	C399.227448,95.062813 401.820862,94.941055 404.448273,94.817696 
	C404.448273,92.813927 404.448273,91.136925 404.448273,89.131912 
	C400.578827,89.131912 397.113739,88.998405 393.671173,89.217659 
	C392.706085,89.279121 391.807129,90.378792 390.877838,91.002235 
	C388.453430,88.479897 385.676270,86.207352 383.676910,83.384018 
	C379.303955,77.208771 375.265411,70.792290 371.209930,64.398453 
	C368.915894,60.781708 366.948761,56.957008 364.637146,53.352444 
	C363.998169,52.356056 362.652130,51.813114 361.155334,50.579842 
	C360.680206,46.108761 360.680206,42.119942 360.680206,37.912392 
	C365.104218,42.102161 368.982666,45.687439 372.759491,49.376755 
	C376.541687,53.071274 380.222412,56.869709 383.947601,60.622593 
	C384.326263,60.334137 384.704926,60.045685 385.083588,59.757229 
	C385.083588,53.171604 385.083588,46.585976 385.419617,40.084511 
	C386.952179,41.607388 388.290039,42.952347 389.318451,44.502594 
	C392.272095,48.954834 395.100555,53.490128 397.917542,58.341347 
	C398.571136,59.158447 399.285339,59.626984 400.024719,60.458248 
	C400.406525,61.915916 400.532684,63.168243 401.156036,64.081039 
	C406.391144,71.747292 411.675568,79.381172 417.067719,86.937325 
	C417.763916,87.912964 419.159882,88.389244 420.177338,89.394432 
	C420.097046,90.093475 420.071106,90.494934 419.914917,91.192154 
	C420.132050,92.658821 420.479492,93.829742 420.893799,95.414177 
	C420.638245,97.574791 419.997467,99.331017 420.047272,101.067451 
	C420.293732,109.665085 420.718323,118.257683 421.105377,126.850922 
	C421.118378,127.139847 421.401245,127.416618 421.711029,127.973656 
	C422.971130,127.895973 424.358002,127.810478 426.176636,127.698357 
	C426.176636,122.228722 426.176636,117.098907 426.176636,111.969086 
	C427.883484,115.558868 429.107483,119.178986 429.521881,122.889519 
	C430.067596,127.775970 432.364563,128.975922 437.170471,127.397377 
	C437.170471,121.257111 437.170471,115.129402 437.170471,109.001678 
z"/>
<path fill="#315587" opacity="1.000000" stroke="none" 
	d="
M757.000000,42.531338 
	C749.765320,41.370514 742.398987,40.171806 735.326416,38.011642 
	C724.434875,34.685093 713.650391,30.947388 703.004822,26.899233 
	C696.688721,24.497450 690.532532,21.506674 684.653564,18.166193 
	C677.045471,13.843153 669.767029,8.936122 662.399475,4.198368 
	C661.487122,3.611655 660.898499,2.521560 660.079956,1.332368 
	C692.231262,1.000000 724.462463,1.000000 757.000000,1.000000 
	C757.000000,14.686038 757.000000,28.374361 757.000000,42.531338 
z"/>
<path fill="#254B80" opacity="1.000000" stroke="none" 
	d="
M522.068298,108.000198 
	C525.312561,109.910805 528.661377,111.667625 531.769348,113.778839 
	C534.439392,115.592575 536.834473,117.811150 539.787354,120.330124 
	C540.544067,128.593201 541.862671,129.263321 553.714722,127.516136 
	C553.714722,125.836563 553.714722,124.125916 553.714722,122.141624 
	C550.896790,122.005943 548.327087,121.882217 545.482117,121.745232 
	C545.482117,116.530029 545.482117,111.753304 545.482117,106.976578 
	C549.687500,108.966499 553.892883,110.956421 558.518372,113.433357 
	C558.953491,117.086212 558.564270,120.328590 559.143555,123.387581 
	C559.462280,125.070724 561.309509,127.620041 562.643066,127.734489 
	C566.355774,128.053162 570.160217,127.303421 573.928406,126.975601 
	C577.178406,128.855774 580.447510,130.703857 583.674744,132.622314 
	C592.274353,137.734543 600.867981,142.857117 609.427368,148.036163 
	C610.351257,148.595169 611.034546,149.551590 611.914734,150.661835 
	C589.979126,151.000000 567.958191,151.000000 545.389099,150.668518 
	C540.560730,146.774475 536.181152,143.323349 532.028442,139.617920 
	C527.900452,135.934479 524.000488,131.995422 520.424622,128.101288 
	C526.126709,128.179642 523.414795,124.639618 523.926025,122.219856 
	C521.078247,122.048233 518.682129,121.903824 516.079285,121.746956 
	C515.928467,118.456863 515.790222,115.439568 515.638977,112.139542 
	C518.330139,111.821808 522.282043,112.972633 522.068298,108.000198 
z"/>
<path fill="#22487D" opacity="1.000000" stroke="none" 
	d="
M397.978180,57.992790 
	C395.100555,53.490128 392.272095,48.954834 389.318451,44.502594 
	C388.290039,42.952347 386.952179,41.607388 385.333221,39.642078 
	C385.499390,35.409122 386.087952,31.702765 386.649261,28.168095 
	C384.320648,28.168095 380.836304,28.168095 377.025269,28.168095 
	C385.148956,34.278862 380.022461,42.091248 381.023956,49.048801 
	C374.711853,43.339489 368.999664,37.447746 363.504333,31.360212 
	C361.174896,28.779795 358.996521,26.634171 355.199036,28.319695 
	C355.767944,29.967045 356.292328,31.485462 356.816711,33.003880 
	C355.659393,32.267994 353.896301,31.795048 353.444031,30.753122 
	C350.711365,24.457649 348.340454,18.006466 345.720276,11.660321 
	C344.328918,8.290361 342.679108,5.027101 341.072998,1.357836 
	C355.687561,1.000000 370.375122,1.000000 385.531342,0.999998 
	C386.910736,3.878310 387.640289,6.830029 388.770355,9.619486 
	C391.048706,15.243470 393.544983,20.779182 395.591522,26.815443 
	C389.518555,26.922915 391.984039,31.152763 391.066406,33.026466 
	C394.302643,32.268646 397.151489,31.601534 399.990662,31.361931 
	C399.730560,33.253227 399.239075,34.722324 399.271149,36.179897 
	C399.413086,42.629951 398.371582,49.325592 402.712555,55.343983 
	C401.115112,56.454536 399.546661,57.223667 397.978180,57.992790 
z"/>
<path fill="#153D76" opacity="1.000000" stroke="none" 
	d="
M234.827164,109.528473 
	C241.263794,120.110016 247.731476,130.672867 254.116806,141.285294 
	C255.867004,144.194153 257.370453,147.251480 258.993561,150.620331 
	C234.312439,151.000000 209.624878,151.000000 184.468658,151.000000 
	C183.049072,148.594635 182.098145,146.189270 181.534149,143.354843 
	C192.175797,142.925781 202.430496,142.925781 212.925674,142.925781 
	C212.925674,139.809082 213.027420,137.333374 212.902283,134.869186 
	C212.705261,130.989883 213.694901,127.789803 216.840027,125.165840 
	C222.939178,120.077354 228.842636,114.754333 234.827164,109.528473 
z"/>
<path fill="#315486" opacity="1.000000" stroke="none" 
	d="
M646.679932,42.890884 
	C655.127258,50.303238 665.381104,54.528206 675.394104,59.183704 
	C683.361694,62.888187 691.167969,66.991219 699.317322,70.235352 
	C704.857605,72.440880 710.876038,73.435471 716.660645,75.043488 
	C718.213989,75.475273 719.729248,76.093567 721.197571,76.766800 
	C722.530090,77.377739 723.702637,78.592415 725.070007,78.832268 
	C735.412170,80.646469 745.784973,82.285950 756.574097,83.989975 
	C757.000000,85.066673 757.000000,86.133339 757.000000,87.600006 
	C745.409302,85.924629 733.741577,84.194527 722.259338,81.632927 
	C716.224609,80.286629 710.500671,77.521935 704.660889,75.332458 
	C696.471069,72.261902 688.162354,69.452637 680.167542,65.933975 
	C672.286011,62.465183 664.732788,58.250515 657.034058,54.366024 
	C655.559387,53.621960 654.077820,52.891479 652.018433,52.082695 
	C651.437439,52.010647 650.996643,51.937195 650.885803,51.623299 
	C648.821411,49.803856 646.867920,48.298309 644.952820,46.482124 
	C645.554138,45.077953 646.117004,43.984425 646.679932,42.890884 
z"/>
<path fill="#264B80" opacity="1.000000" stroke="none" 
	d="
M520.000549,128.168488 
	C524.000488,131.995422 527.900452,135.934479 532.028442,139.617920 
	C536.181152,143.323349 540.560730,146.774475 544.920410,150.668518 
	C540.310730,151.000000 535.621521,151.000000 530.466125,151.000000 
	C529.466431,149.516235 529.237000,146.968414 528.351624,146.715286 
	C520.543335,144.482956 516.923096,137.311569 511.161591,132.723969 
	C508.127472,130.308044 504.817017,128.239120 501.207123,125.572075 
	C501.230988,121.753929 501.679108,118.377220 502.462921,115.074020 
	C505.388092,116.433899 507.977539,117.720261 510.656860,119.456894 
	C510.746735,122.458298 510.746735,125.009438 510.746735,128.168488 
	C514.224792,128.168488 517.112671,128.168488 520.000549,128.168488 
z"/>
<path fill="#EFD39A" opacity="1.000000" stroke="none" 
	d="
M587.491333,112.386841 
	C586.842651,114.595024 586.392761,117.051872 586.230896,119.527550 
	C586.069092,122.002655 586.195374,124.496597 586.195374,127.433624 
	C584.595825,127.589897 583.222229,127.724091 581.305176,127.911369 
	C581.305176,114.946510 581.305176,102.369843 581.305176,89.215721 
	C585.020020,89.215721 589.291016,88.895813 593.462585,89.399406 
	C594.815552,89.562737 596.811035,91.793213 596.953247,93.232292 
	C597.409241,97.845192 597.414490,102.555130 597.002869,107.174995 
	C596.842590,108.973831 595.108032,110.632385 593.482971,113.383224 
	C594.426941,117.062653 595.693359,121.999130 597.015930,127.154541 
	C593.554993,128.685852 591.750183,127.826965 590.951843,124.178070 
	C590.101440,120.290688 588.877258,116.485077 587.491333,112.386841 
M586.160034,102.340179 
	C585.975220,107.298248 589.085388,105.742317 591.866455,105.468704 
	C591.866455,101.903839 591.866455,98.662132 591.866455,95.189896 
	C590.684570,95.114998 589.725159,94.994904 588.767883,95.010391 
	C587.831787,95.025528 586.897888,95.178947 586.158569,95.252274 
	C586.158569,97.564751 586.158569,99.527733 586.160034,102.340179 
z"/>
<path fill="#F7F8FA" opacity="1.000000" stroke="none" 
	d="
M521.440979,59.980408 
	C519.683105,59.658775 518.367676,59.246159 517.042053,58.459541 
	C518.296387,56.255398 520.490845,54.502747 520.650940,52.580601 
	C521.132996,46.794937 521.088623,40.924995 520.689636,35.126453 
	C520.532227,32.838474 518.895813,30.652248 517.509094,27.437267 
	C524.009338,27.849916 531.072754,27.482779 537.726257,28.961063 
	C543.797791,30.310053 544.593323,37.878681 539.719177,41.953320 
	C538.617432,42.874332 537.427063,43.689392 536.460815,44.415470 
	C540.901794,49.437710 545.350342,54.468590 549.706726,59.395145 
	C546.100464,60.977463 543.785645,60.595253 540.892212,57.279671 
	C538.598389,54.651196 536.781860,51.571922 534.310120,49.144100 
	C532.371338,47.239716 529.754333,46.025700 527.001587,44.217979 
	C525.184692,54.239868 525.577209,55.498692 532.368652,59.889427 
	C527.947205,59.889427 524.915283,59.889427 521.440979,59.980408 
M526.168884,36.672409 
	C526.168884,38.619251 526.168884,40.566097 526.168884,42.437778 
	C533.029297,43.485138 536.359741,42.074745 536.952881,38.133163 
	C537.556885,34.118767 534.740417,30.388826 530.815674,30.030939 
	C526.410645,29.629248 526.036560,32.504192 526.168884,36.672409 
z"/>
<path fill="#F3F5F8" opacity="1.000000" stroke="none" 
	d="
M555.065918,34.661453 
	C559.137268,31.884157 562.874023,28.380182 567.209167,27.317223 
	C574.074158,25.633972 580.944519,29.668591 583.892883,35.420685 
	C587.540039,42.535912 586.251709,50.034019 580.143860,56.676353 
	C568.741455,64.769753 555.406494,58.670620 553.722900,49.021339 
	C552.945740,44.567303 554.501587,39.706203 555.065918,34.661453 
M575.262268,56.142033 
	C581.395386,52.511414 580.773926,46.706345 579.631531,41.130924 
	C578.493958,35.578911 575.108337,31.017557 569.273071,30.441147 
	C566.389832,30.156340 562.140747,31.889362 560.405701,34.158901 
	C556.336975,39.481003 557.986084,45.569321 561.023682,50.986233 
	C563.904541,56.123787 568.311707,57.711796 575.262268,56.142033 
z"/>
<path fill="#F6D89B" opacity="1.000000" stroke="none" 
	d="
M574.095825,126.589325 
	C570.160217,127.303421 566.355774,128.053162 562.643066,127.734489 
	C561.309509,127.620041 559.462280,125.070724 559.143555,123.387581 
	C558.564270,120.328590 558.953491,117.086212 558.869812,113.462341 
	C558.859924,109.020805 558.940491,105.037491 558.971252,101.053787 
	C559.000427,97.268677 558.977539,93.483162 558.977539,89.447083 
	C560.719788,89.447083 562.106140,89.447083 564.000000,89.447083 
	C564.000000,94.954971 564.000000,100.231995 564.000000,105.509010 
	C564.000000,110.801147 564.000000,116.093277 564.000000,121.686783 
	C566.046143,121.686783 567.751282,121.686783 569.900085,121.686783 
	C569.900085,110.973831 569.900085,100.403664 569.900085,89.511551 
	C571.707520,89.511551 573.078918,89.511551 574.415894,89.511551 
	C574.606384,89.902557 574.869629,90.191597 574.871033,90.481911 
	C574.924500,101.444565 574.971802,112.407356 574.954834,123.370033 
	C574.953369,124.314720 574.504395,125.258720 574.095825,126.589325 
z"/>
<path fill="#EDF0F5" opacity="1.000000" stroke="none" 
	d="
M510.683655,52.617218 
	C510.783478,55.204185 511.200500,57.108780 508.192993,58.447170 
	C499.405334,62.357769 488.509521,59.512878 484.271729,51.642841 
	C479.837463,43.407894 483.275238,33.888184 492.790100,28.414862 
	C497.776917,28.015602 502.556885,27.633362 507.299164,27.906340 
	C508.277496,27.962656 509.115265,30.460579 510.017822,31.833149 
	C508.549469,32.160564 506.815643,33.162292 505.655975,32.705715 
	C498.250854,29.790140 492.289062,30.459541 489.300995,34.921181 
	C486.141602,39.638683 487.660522,49.526104 492.454285,53.816151 
	C494.007416,55.206070 496.093353,56.692703 498.011963,56.802715 
	C500.287537,56.933197 503.876282,56.302307 504.705292,54.795876 
	C506.309265,51.881157 505.482452,48.569603 501.359222,47.471981 
	C500.946045,47.362000 500.616669,46.937149 499.356049,45.983017 
	C504.582916,45.983017 508.857758,45.983017 513.001160,45.983017 
	C512.198303,48.039127 511.378204,50.139278 510.683655,52.617218 
z"/>
<path fill="#E3CB98" opacity="1.000000" stroke="none" 
	d="
M607.185120,89.378021 
	C610.279175,89.377907 612.915833,89.377907 615.796509,89.377907 
	C615.796509,91.479355 615.796509,93.080132 615.796509,94.946541 
	C613.274902,95.137939 610.842468,95.322556 608.037292,95.535469 
	C608.037292,98.862053 608.037292,102.084114 608.037292,105.607544 
	C609.546631,105.815094 610.970642,106.010918 612.799805,106.262451 
	C612.876953,107.798386 612.955750,109.366455 613.045532,111.153694 
	C611.113586,111.426392 609.497925,111.654449 607.761230,111.899582 
	C607.761230,115.082123 607.761230,118.268120 607.761230,121.684814 
	C610.616455,121.861763 613.050659,122.012619 615.754272,122.180176 
	C615.754272,124.076416 615.754272,125.801239 615.754272,127.779633 
	C611.360291,127.779633 607.125427,127.779633 602.592896,127.779633 
	C602.592896,115.077187 602.592896,102.636383 602.592896,89.715973 
	C603.861389,89.612335 605.294556,89.495239 607.185120,89.378021 
z"/>
<path fill="#EAD099" opacity="1.000000" stroke="none" 
	d="
M545.399048,106.530670 
	C545.482117,111.753304 545.482117,116.530029 545.482117,121.745232 
	C548.327087,121.882217 550.896790,122.005943 553.714722,122.141624 
	C553.714722,124.125916 553.714722,125.836563 553.714722,127.516136 
	C541.862671,129.263321 540.544067,128.593201 540.126465,120.404694 
	C540.115051,111.855095 540.306274,103.709526 540.242737,95.565941 
	C540.209778,91.342514 541.522949,88.761566 546.604126,88.991768 
	C549.103455,89.057648 551.208923,89.202408 553.638000,89.369423 
	C553.638000,91.226372 553.638000,92.918915 553.638000,94.972557 
	C550.979309,95.101990 548.404846,95.227325 545.315979,95.377693 
	C545.315979,98.989548 545.315979,102.537155 545.399048,106.530670 
z"/>
<path fill="#EFF2F6" opacity="1.000000" stroke="none" 
	d="
M646.764282,42.527081 
	C646.117004,43.984425 645.554138,45.077953 644.569580,46.516457 
	C641.382324,45.960514 638.616760,45.059601 635.851196,44.158691 
	C635.351074,44.601086 634.850891,45.043480 634.350769,45.485874 
	C635.181274,49.271824 635.083801,53.702301 637.127991,56.645283 
	C638.847229,59.120564 646.664062,56.271206 650.318848,52.659294 
	C650.553467,52.427414 650.771118,52.178284 650.996643,51.937195 
	C650.996643,51.937195 651.437439,52.010647 651.660400,52.026016 
	C651.630859,58.278786 649.771606,59.973850 643.730957,59.696793 
	C640.576782,59.552116 637.413147,59.601696 634.253723,59.585445 
	C631.193115,59.569702 628.132324,59.582031 624.744995,59.191338 
	C629.961487,57.160206 629.556458,52.991417 629.460327,48.879478 
	C629.351379,44.224358 629.390930,39.565765 629.248901,34.452255 
	C628.195190,32.079964 627.258484,30.164095 626.171692,27.941208 
	C633.711853,27.941208 641.482300,27.941208 649.792480,27.941208 
	C649.345276,30.073744 648.959778,31.911926 648.404480,34.560020 
	C644.834717,30.616854 640.470337,28.370586 636.879761,31.258970 
	C634.786621,32.942757 635.148987,37.678944 634.070190,42.565193 
	C638.690186,41.859180 641.943909,41.297848 645.219482,40.930553 
	C645.710266,40.875526 646.302979,41.729694 646.764282,42.527081 
z"/>
<path fill="#F2F4F8" opacity="1.000000" stroke="none" 
	d="
M614.635498,27.674397 
	C617.628113,27.945501 620.260681,28.306133 622.806763,29.055801 
	C621.247559,30.879671 619.187805,32.050377 618.402893,33.794731 
	C614.869751,41.646816 611.732666,49.676323 608.354431,57.599903 
	C607.913330,58.634266 606.902588,59.425743 606.155701,60.329735 
	C605.319336,59.470066 604.154907,58.755737 603.699280,57.727383 
	C600.477966,50.456718 597.500977,43.076950 594.227356,35.830799 
	C593.055115,33.235958 591.278625,30.914103 589.705750,28.349873 
	C593.118225,28.349873 596.956421,28.349873 599.724487,28.349873 
	C599.977295,31.024788 599.752197,33.823811 600.575317,36.270142 
	C602.272888,41.315434 604.529724,46.172558 607.042053,52.289299 
	C610.093140,45.016026 612.753418,38.861599 615.167358,32.611992 
	C615.393127,32.027409 613.844849,30.908318 613.535950,29.908928 
	C613.355713,29.325809 614.001343,28.487448 614.635498,27.674397 
z"/>
<path fill="#E5CC98" opacity="1.000000" stroke="none" 
	d="
M234.983551,109.248856 
	C228.842636,114.754333 222.939178,120.077354 216.840027,125.165840 
	C213.694901,127.789803 212.705261,130.989883 212.902283,134.869186 
	C213.027420,137.333374 212.925674,139.809082 212.925674,142.925781 
	C202.430496,142.925781 192.175797,142.925781 181.458878,143.010452 
	C175.536514,143.095123 170.076355,143.095123 164.360703,143.095123 
	C164.188614,141.832794 163.877380,141.023224 164.009384,140.293900 
	C165.607895,131.461807 161.792053,125.729378 154.548492,120.795883 
	C141.736115,112.069565 133.723434,99.152565 126.901314,85.598106 
	C122.887199,77.622719 119.660301,69.251099 115.421165,59.551727 
	C118.908371,59.372234 121.549301,59.236301 124.522980,59.266510 
	C133.519577,60.705597 135.861176,68.061638 139.587921,74.323128 
	C143.368301,80.674759 147.626419,86.774345 152.094910,92.666077 
	C153.592087,94.640106 156.195572,96.292542 158.608383,96.969917 
	C173.313950,101.098427 184.089310,109.298935 188.531738,125.563850 
	C191.383530,113.969383 197.791992,106.268082 207.327209,101.210869 
	C210.045181,99.769341 213.241470,99.239227 215.987137,97.837959 
	C219.320694,96.136650 222.409363,93.955444 225.734604,91.639061 
	C231.162460,83.010429 236.753586,74.893967 241.658966,66.382301 
	C245.237335,60.173187 251.219772,59.784325 257.401428,58.549835 
	C260.319244,59.614830 261.279388,61.225204 259.748322,64.084389 
	C253.102325,77.389725 246.595398,90.431023 239.876526,103.362206 
	C238.776215,105.479866 236.742340,107.112457 234.983551,109.248856 
M179.896713,113.689926 
	C174.782593,106.689720 168.077881,102.250900 159.532791,100.361816 
	C154.311340,99.207504 150.258286,96.119644 147.462173,91.392548 
	C146.208176,89.272545 144.668442,87.217903 142.856552,85.577354 
	C142.010956,84.811714 140.209976,85.101204 138.842041,84.912445 
	C138.802124,86.221741 138.236023,87.853806 138.808655,88.787354 
	C142.235992,94.374687 143.899994,101.067390 149.577606,105.291214 
	C151.756638,106.912292 153.215042,109.502014 155.256439,111.956505 
	C153.792572,112.729164 152.670898,113.321198 151.016983,114.194168 
	C158.671768,121.472359 170.675659,125.734550 166.536713,139.640091 
	C173.811356,139.640091 180.191254,139.640091 186.960663,139.640091 
	C186.487213,130.465195 185.949249,121.736649 179.896713,113.689926 
M196.590958,114.216423 
	C191.113541,121.854820 190.226135,130.558609 190.106445,139.598816 
	C197.082779,139.598816 203.454483,139.598816 210.318878,139.598816 
	C208.020126,129.533493 212.836563,123.370552 220.681839,118.779648 
	C222.825500,117.525223 224.867828,116.097633 226.956650,114.749512 
	C226.437729,114.252991 225.918793,113.756477 225.399872,113.259956 
	C224.261276,112.893570 223.122696,112.527191 222.696182,112.389938 
	C227.852249,104.546936 232.959290,96.933571 237.837128,89.176086 
	C238.498413,88.124413 238.010742,86.350311 238.055084,84.910713 
	C236.570145,85.233665 234.694244,85.106293 233.687607,85.980186 
	C231.978699,87.463730 230.619049,89.463196 229.466049,91.450851 
	C226.705719,96.209404 222.584930,99.183479 217.385910,100.345795 
	C208.869568,102.249741 202.168610,106.681709 196.590958,114.216423 
M142.741119,105.783081 
	C144.723022,107.659065 146.704926,109.535042 148.686829,111.411026 
	C149.022079,111.045868 149.357315,110.680710 149.692566,110.315552 
	C146.568115,106.209709 142.881165,102.406013 140.470001,97.917046 
	C137.808334,92.961746 135.523026,88.057907 134.914856,81.766502 
	C134.311310,75.522926 128.521591,69.732819 124.799477,63.875271 
	C123.964569,62.561359 122.269569,61.793983 119.993378,60.008518 
	C120.199722,62.181561 120.085609,63.016262 120.371452,63.678265 
	C123.591995,71.136765 126.493729,78.767601 130.250229,85.949867 
	C133.750641,92.642494 138.177917,98.850319 142.741119,105.783081 
M236.471909,97.986076 
	C233.207352,102.316551 229.942780,106.647026 225.983490,111.899055 
	C236.145020,106.087097 257.108002,70.134018 256.105988,60.449154 
	C254.554504,61.761803 253.015472,62.533180 252.273438,63.779202 
	C247.962875,71.017494 241.282166,77.216087 242.014282,86.756813 
	C242.091049,87.757462 241.167450,88.851036 240.659042,89.877235 
	C239.418747,92.380714 238.149689,94.869957 236.471909,97.986076 
z"/>
<path fill="#EED299" opacity="1.000000" stroke="none" 
	d="
M350.767334,126.544472 
	C348.440094,127.358337 346.092407,127.731270 343.457062,128.149902 
	C342.776093,123.578384 342.198059,119.697716 341.619995,115.817047 
	C341.281525,115.759300 340.943085,115.701546 340.604614,115.643791 
	C339.971985,119.498505 339.339355,123.353218 338.709167,127.192932 
	C331.840790,128.728470 331.689178,128.544174 330.923279,121.998184 
	C329.670654,111.292099 328.267517,100.603622 326.970276,89.472519 
	C328.490082,89.129700 329.967499,89.222076 331.942139,89.345551 
	C332.789795,95.510826 333.631104,101.629761 334.472382,107.748695 
	C334.957428,107.777466 335.442474,107.806236 335.927551,107.835007 
	C336.604919,102.912804 337.093048,97.952362 338.075104,93.091705 
	C338.369263,91.635536 340.042175,90.457924 341.083435,89.152695 
	C342.061768,90.489182 343.628998,91.712578 343.911285,93.182724 
	C344.869995,98.174927 345.374634,103.254326 347.089508,108.343414 
	C347.805298,103.554092 348.804718,98.785606 349.158630,93.969696 
	C349.527222,88.954353 349.254852,88.934334 354.882080,89.702370 
	C353.504547,101.828545 352.125763,113.966042 350.767334,126.544472 
z"/>
<path fill="#ECEFF4" opacity="1.000000" stroke="none" 
	d="
M356.925232,33.461498 
	C356.292328,31.485462 355.767944,29.967045 355.199036,28.319695 
	C358.996521,26.634171 361.174896,28.779795 363.504333,31.360212 
	C368.999664,37.447746 374.711853,43.339489 381.023956,49.048801 
	C380.022461,42.091248 385.148956,34.278862 377.025269,28.168095 
	C380.836304,28.168095 384.320648,28.168095 386.649261,28.168095 
	C386.087952,31.702765 385.499390,35.409122 384.997192,39.557915 
	C385.083588,46.585976 385.083588,53.171604 385.083588,59.757229 
	C384.704926,60.045685 384.326263,60.334137 383.947601,60.622593 
	C380.222412,56.869709 376.541687,53.071274 372.759491,49.376755 
	C368.982666,45.687439 365.104218,42.102161 360.680206,37.912392 
	C360.680206,42.119942 360.680206,46.108761 360.797302,50.548058 
	C360.210724,54.584698 360.478058,57.687927 364.804718,59.337433 
	C361.181976,59.337433 357.559235,59.337433 355.069885,59.337433 
	C355.785980,56.126690 356.925842,52.963894 357.110565,49.746254 
	C357.412354,44.489338 357.091797,39.196693 356.925232,33.461498 
z"/>
<path fill="#EAEEF3" opacity="1.000000" stroke="none" 
	d="
M347.935791,31.944702 
	C347.104340,32.588013 346.170746,33.279896 345.620239,33.050884 
	C344.002106,32.377739 342.637177,30.913992 340.991638,30.522581 
	C335.931854,29.319059 334.028625,30.994934 334.000092,36.216854 
	C333.990265,38.009727 333.998535,39.802700 333.998535,42.461021 
	C338.256134,41.887592 341.899994,41.396828 346.124878,40.827805 
	C345.323212,42.693119 344.421265,44.791710 343.642914,46.602825 
	C340.485901,45.743954 337.731018,44.994488 334.026489,43.986668 
	C334.026489,47.969433 333.682373,51.100620 334.197784,54.083271 
	C334.400726,55.257748 336.713623,57.111988 337.737823,56.918751 
	C342.091949,56.097248 346.323120,54.624245 350.484375,53.422321 
	C350.975952,56.609379 349.087189,59.732014 345.324402,59.819553 
	C338.237518,59.984432 331.144104,59.867119 323.637573,59.442692 
	C331.012756,55.729713 328.049164,49.268040 328.095490,43.983994 
	C328.141510,38.731167 330.721832,32.499310 324.403229,27.770079 
	C327.774628,27.770079 331.146484,27.803581 334.517365,27.760593 
	C337.843567,27.718176 341.188080,27.790491 344.489166,27.459507 
	C347.920105,27.115503 349.237732,28.141375 347.935791,31.944702 
z"/>
<path fill="#EFF1F5" opacity="1.000000" stroke="none" 
	d="
M312.904144,59.714371 
	C310.711395,60.073864 308.727295,60.392231 306.774658,60.256977 
	C299.481415,59.751789 293.652893,56.811890 290.912720,49.604115 
	C288.299103,42.729153 290.347504,36.325916 296.832336,30.303589 
	C303.858887,26.922684 310.754242,25.338633 318.023926,29.308794 
	C317.370087,32.813419 316.594666,34.708527 312.503052,32.591213 
	C307.926575,30.222961 302.799835,29.557634 298.395050,33.152657 
	C294.210358,36.568043 294.540741,41.390392 295.592529,46.054855 
	C296.802429,51.420361 299.751221,55.536472 305.356964,56.932735 
	C308.074890,57.609718 311.324219,58.237007 312.513519,54.542480 
	C313.562012,51.285255 312.562347,48.633434 308.927399,47.512642 
	C308.521790,47.387569 308.226227,46.905655 307.195801,45.964966 
	C312.177063,45.964966 316.411621,45.964966 319.824768,45.964966 
	C319.037598,49.412106 318.244476,52.885311 317.206390,57.431221 
	C316.619568,57.723797 314.873413,58.594398 312.904144,59.714371 
z"/>
<path fill="#F6D89B" opacity="1.000000" stroke="none" 
	d="
M366.028503,95.918182 
	C366.028503,99.057777 366.028503,102.197372 366.028503,105.687050 
	C367.930969,105.883766 369.665375,106.063110 371.475037,106.250237 
	C373.196259,111.374863 370.304779,112.384674 366.118317,112.130409 
	C366.118317,115.384338 366.118317,118.327141 366.118317,121.763176 
	C368.545898,121.895317 370.949615,122.026154 373.672729,122.174377 
	C373.672729,123.991364 373.672729,125.714996 373.672729,127.722389 
	C369.614624,127.722389 365.547241,127.722389 361.179504,127.722389 
	C361.179504,115.072365 361.179504,102.547935 361.179504,89.760681 
	C365.489563,89.760681 369.559296,89.760681 373.948975,89.760681 
	C373.948975,91.556602 373.948975,93.102089 373.948975,95.222763 
	C371.470245,95.222763 369.189362,95.222763 366.297180,95.285080 
	C365.800079,95.537651 365.914307,95.727913 366.028503,95.918182 
z"/>
<path fill="#EAD099" opacity="1.000000" stroke="none" 
	d="
M390.962036,91.464142 
	C391.807129,90.378792 392.706085,89.279121 393.671173,89.217659 
	C397.113739,88.998405 400.578827,89.131912 404.448273,89.131912 
	C404.448273,91.136925 404.448273,92.813927 404.448273,94.817696 
	C401.820862,94.941055 399.227448,95.062813 396.381775,95.196419 
	C396.381775,98.494400 396.381775,101.707321 396.381775,105.252350 
	C398.206573,105.560081 399.917358,105.848595 401.921265,106.186531 
	C401.921265,107.801460 401.921265,109.396309 401.767242,111.400055 
	C399.979187,111.808968 398.345154,111.808968 396.232880,111.808968 
	C396.232880,117.111000 396.232880,122.196045 396.232880,127.356720 
	C392.552002,128.430344 390.972015,127.805931 391.031982,123.911201 
	C391.196075,113.251938 391.062134,102.588081 390.962036,91.464142 
z"/>
<path fill="#ECD199" opacity="1.000000" stroke="none" 
	d="
M409.631714,115.460129 
	C409.546967,106.560455 409.546967,98.117828 409.546967,89.414925 
	C411.309052,89.414925 412.865753,89.414925 414.809021,89.414925 
	C414.809021,102.105576 414.809021,114.524673 414.744934,127.399216 
	C413.243713,127.854660 411.806580,127.854660 409.716492,127.854660 
	C409.716492,123.652267 409.716492,119.784721 409.631714,115.460129 
z"/>
<path fill="#22487D" opacity="1.000000" stroke="none" 
	d="
M366.029236,95.796921 
	C365.914307,95.727913 365.800079,95.537651 365.850464,95.390503 
	C366.015076,95.433617 366.029968,95.675674 366.029236,95.796921 
z"/>
<path fill="#EED29A" opacity="1.000000" stroke="none" 
	d="
M502.127228,115.000519 
	C501.679108,118.377220 501.230988,121.753929 500.829895,125.563217 
	C498.542053,126.829109 496.207153,127.662415 493.404694,128.662598 
	C492.808807,124.570137 492.390778,121.699158 491.923218,118.045265 
	C491.631897,116.488251 491.390137,115.714157 490.714355,113.550423 
	C490.402771,115.687920 490.304993,116.358566 490.207245,117.029213 
	C489.688995,120.433617 489.170776,123.838020 488.661438,127.184166 
	C481.702728,128.693878 481.739807,128.596786 480.841217,122.016960 
	C479.778564,114.235634 478.424469,106.494095 477.007385,98.370125 
	C476.818085,95.291489 476.818085,92.578033 476.818085,89.498047 
	C477.996918,89.498047 479.699982,89.498047 481.727600,89.498047 
	C482.619141,95.932823 483.511200,102.371078 484.403229,108.809334 
	C484.800842,108.837852 485.198456,108.866379 485.596069,108.894905 
	C486.109375,104.255188 486.478607,99.592773 487.204254,94.986511 
	C487.510742,93.041153 488.047272,90.567696 489.400360,89.477951 
	C491.684326,87.638481 494.730652,90.878357 494.823273,94.594238 
	C494.947205,99.567368 495.475586,104.530418 496.917358,109.473579 
	C497.780426,102.961960 498.643524,96.450340 499.630798,89.001877 
	C501.247894,89.377968 503.072449,89.802307 504.866211,91.011246 
	C503.932678,99.530731 503.029968,107.265625 502.127228,115.000519 
z"/>
<path fill="#EFF2F6" opacity="1.000000" stroke="none" 
	d="
M453.154999,29.054399 
	C454.748932,28.412497 456.554932,27.863359 458.370605,27.829222 
	C464.426361,27.715364 470.485657,27.786106 476.999451,27.786106 
	C476.394440,30.238228 475.945740,32.056709 475.307678,34.642841 
	C471.954010,30.397524 467.540436,28.498356 464.172638,31.155294 
	C461.976318,32.888004 462.224823,37.719612 461.043182,42.525330 
	C466.364838,41.858852 470.119324,41.388645 474.362854,40.857189 
	C473.479401,42.817528 472.575684,44.822765 471.824127,46.490433 
	C468.609222,45.705097 465.729919,45.001732 462.502106,44.213242 
	C462.301941,46.255688 461.954865,47.419064 462.127533,48.499355 
	C462.574097,51.292923 462.913452,56.269001 463.895569,56.417965 
	C467.250641,56.926834 470.918274,55.949379 474.353119,55.086872 
	C475.812164,54.720505 476.989807,53.233624 478.317780,52.239182 
	C479.144135,56.483986 477.305725,59.648918 473.464752,59.775002 
	C466.413361,60.006481 459.348907,59.840996 451.907806,59.364799 
	C457.342285,57.106110 456.664215,52.706898 456.595947,48.498417 
	C456.525879,44.177277 456.920563,39.815151 456.433960,35.548271 
	C456.189484,33.404678 454.440247,31.432693 453.154999,29.054399 
z"/>
<path fill="#F4D69A" opacity="1.000000" stroke="none" 
	d="
M520.424622,128.101288 
	C517.112671,128.168488 514.224792,128.168488 510.746735,128.168488 
	C510.746735,125.009438 510.746735,122.458298 510.745667,118.995331 
	C510.684662,109.387001 510.624725,100.690506 510.564789,91.994019 
	C511.513428,91.157310 512.403137,89.695038 513.421509,89.599113 
	C516.704956,89.289841 520.035767,89.483864 523.793396,89.483864 
	C523.952271,91.339409 524.085144,92.891533 524.262939,94.967377 
	C521.339905,94.967377 518.760437,94.967377 516.042603,94.967377 
	C516.042603,98.700142 516.042603,101.933121 516.042603,104.972511 
	C518.159668,105.789833 520.003174,106.501549 521.957520,107.606735 
	C522.282043,112.972633 518.330139,111.821808 515.638977,112.139542 
	C515.790222,115.439568 515.928467,118.456863 516.079285,121.746956 
	C518.682129,121.903824 521.078247,122.048233 523.926025,122.219856 
	C523.414795,124.639618 526.126709,128.179642 520.424622,128.101288 
z"/>
<path fill="#F2F4F8" opacity="1.000000" stroke="none" 
	d="
M445.324219,59.928440 
	C437.767517,60.066219 430.536133,60.066219 423.304779,60.066219 
	C423.020752,59.699802 422.736755,59.333382 422.452728,58.966965 
	C428.757568,57.073483 427.536835,52.306206 427.582153,48.047523 
	C427.624603,44.057053 427.430725,40.057583 427.635773,36.077271 
	C427.817627,32.547268 426.835480,29.967159 423.157959,28.441099 
	C427.471619,28.086372 431.906464,28.086372 435.297760,28.086372 
	C434.532532,30.921978 433.334198,33.605267 433.167603,36.351143 
	C432.835541,41.825390 433.144470,47.335396 433.042633,52.827927 
	C432.982178,56.088169 434.551178,57.741982 437.591858,57.039867 
	C441.779083,56.073025 445.835236,54.538651 449.999725,53.231018 
	C450.344696,55.861980 448.819580,58.266487 445.324219,59.928440 
z"/>
<path fill="#254B80" opacity="1.000000" stroke="none" 
	d="
M510.215881,91.988205 
	C510.624725,100.690506 510.684662,109.387001 510.655823,118.545059 
	C507.977539,117.720261 505.388092,116.433899 502.462952,115.074028 
	C503.029968,107.265625 503.932678,99.530731 504.969849,91.398514 
	C506.691864,91.328262 508.279419,91.655327 510.215881,91.988205 
z"/>
<path fill="#F4D69A" opacity="1.000000" stroke="none" 
	d="
M190.538132,11.021904 
	C193.550095,12.452460 196.054382,14.007533 198.673004,15.337497 
	C199.726700,15.872668 201.024673,16.108171 202.222519,16.148041 
	C208.640808,16.361660 212.858032,19.715843 214.132126,26.010181 
	C214.623123,28.435760 214.937286,30.949467 214.905472,33.417519 
	C214.841476,38.379871 213.640549,43.112736 217.176727,47.927704 
	C219.557693,51.169720 218.072281,55.497780 214.849655,58.723164 
	C213.478104,60.095894 212.840149,62.201565 211.873627,64.348206 
	C209.936340,67.982834 208.123245,71.328880 206.029770,74.489174 
	C196.953995,88.189781 180.689285,88.075256 169.913681,75.154640 
	C167.824753,72.649879 166.271408,69.607483 164.905823,66.614693 
	C163.382675,63.276573 163.222534,59.639332 159.525314,57.043518 
	C156.150955,54.674389 157.181854,48.121395 160.071838,44.270802 
	C161.001129,43.032612 161.573059,41.153538 161.500244,39.605690 
	C161.280594,34.936989 159.024124,29.997999 163.936707,26.283264 
	C164.046585,26.200180 164.060638,25.989145 164.117203,25.836983 
	C165.392502,22.405830 165.718964,17.212851 168.139694,15.909488 
	C173.203461,13.183077 179.349564,12.415686 185.099960,11.049169 
	C186.669571,10.676164 188.412811,11.033732 190.538132,11.021904 
M204.488434,35.033375 
	C202.421234,32.679146 200.858261,28.507759 196.892059,32.960335 
	C196.724396,33.148575 195.895248,32.946083 195.507385,32.708397 
	C192.332916,30.763092 191.299469,31.798765 191.655029,35.266289 
	C191.716904,35.869682 191.012177,37.014847 190.475708,37.145237 
	C184.714935,38.545425 187.843094,40.815304 189.863968,42.801208 
	C189.729126,45.222878 184.908630,49.605965 192.329666,48.444096 
	C192.783386,48.373058 193.739227,49.036922 193.829178,49.485600 
	C195.173264,56.190495 197.754135,51.594795 199.937683,49.943756 
	C202.561295,51.352108 205.819870,54.121841 205.180588,47.861824 
	C205.122589,47.293961 206.276886,46.270264 207.055832,46.001011 
	C213.818451,43.663433 203.407043,39.058357 208.344315,36.550259 
	C207.320663,36.013290 206.296997,35.476322 204.488434,35.033375 
M186.411591,25.745195 
	C185.444656,24.253244 184.477722,22.761293 183.921799,21.903528 
	C178.470154,20.333538 174.462830,22.389980 171.669281,24.993408 
	C171.172119,28.072016 170.802597,30.360287 170.485733,32.322460 
	C172.083954,34.199043 173.688995,36.083614 175.107040,37.748634 
	C177.507462,38.012280 179.952423,38.280819 181.529175,38.454002 
	C183.793335,36.756332 185.663925,35.353756 186.949921,34.389523 
	C187.476089,31.916601 188.035095,29.830526 188.297455,27.707785 
	C188.370712,27.114918 187.568359,26.413830 186.411591,25.745195 
z"/>
<path fill="#22487D" opacity="1.000000" stroke="none" 
	d="
M420.231689,89.096848 
	C419.159882,88.389244 417.763916,87.912964 417.067719,86.937325 
	C411.675568,79.381172 406.391144,71.747292 401.156036,64.081039 
	C400.532684,63.168243 400.406525,61.915916 400.481750,60.374306 
	C405.207947,59.927635 409.502258,59.927635 413.796600,59.927635 
	C413.972534,59.433521 414.148468,58.939407 414.324402,58.445293 
	C407.620728,58.268902 408.607880,53.986214 409.039307,50.000248 
	C411.503662,52.725861 414.182526,55.289104 416.391815,58.207783 
	C422.800537,66.674339 429.091736,75.233070 435.250153,83.882988 
	C436.368866,85.454269 436.641754,87.627731 436.700500,89.761536 
	C434.766968,90.013283 433.438080,90.026695 431.760620,90.091812 
	C430.273651,90.429001 429.135254,90.714500 427.754456,90.711823 
	C425.085297,89.981377 422.658478,89.539108 420.231689,89.096848 
z"/>
<path fill="#F5D79B" opacity="1.000000" stroke="none" 
	d="
M432.109192,90.040100 
	C433.438080,90.026695 434.766968,90.013283 436.494141,90.020264 
	C436.939178,96.051735 436.985992,102.062798 437.101624,108.537781 
	C437.170471,115.129402 437.170471,121.257111 437.170471,127.397377 
	C432.364563,128.975922 430.067596,127.775970 429.521881,122.889519 
	C429.107483,119.178986 427.883484,115.558868 426.176636,111.969086 
	C426.176636,117.098907 426.176636,122.228722 426.176636,127.698357 
	C424.358002,127.810478 422.971130,127.895973 421.711029,127.973656 
	C421.401245,127.416618 421.118378,127.139847 421.105377,126.850922 
	C420.718323,118.257683 420.293732,109.665085 420.047272,101.067451 
	C419.997467,99.331017 420.638245,97.574791 420.961700,95.042732 
	C420.656891,93.137314 420.351044,92.016853 420.045197,90.896400 
	C420.071106,90.494934 420.097046,90.093475 420.177338,89.394424 
	C422.658478,89.539108 425.085297,89.981377 427.727051,91.110657 
	C428.411285,93.877045 428.880554,95.956436 429.349792,98.035820 
	C429.844208,98.031235 430.338623,98.026649 430.833008,98.022057 
	C431.258392,95.361404 431.683807,92.700752 432.109192,90.040100 
z"/>
<path fill="#F4D69A" opacity="1.000000" stroke="none" 
	d="
M457.160889,127.464432 
	C452.501312,127.764778 448.080444,127.764778 443.022308,127.764778 
	C443.022308,123.060974 443.022308,118.492737 442.947510,113.462891 
	C442.872711,105.387634 442.872711,97.773987 442.872711,89.557693 
	C447.382599,89.557693 451.353973,89.228424 455.217560,89.729897 
	C456.638397,89.914307 458.878967,92.030014 458.916809,93.318535 
	C459.219513,103.618546 459.128723,113.931992 459.008423,124.239578 
	C458.996979,125.220528 457.960297,126.189522 457.160889,127.464432 
M448.114807,96.945099 
	C448.114807,105.215096 448.114807,113.485092 448.114807,121.771820 
	C450.400970,121.771820 452.005585,121.771820 453.695251,121.771820 
	C453.695251,112.826332 453.695251,104.119316 453.695251,94.766655 
	C451.518219,95.269135 449.850403,95.654083 448.114807,96.945099 
z"/>
<path fill="#EAEEF3" opacity="1.000000" stroke="none" 
	d="
M408.944885,49.539993 
	C408.607880,53.986214 407.620728,58.268902 414.324402,58.445293 
	C414.148468,58.939407 413.972534,59.433521 413.796600,59.927635 
	C409.502258,59.927635 405.207947,59.927635 400.456604,60.011578 
	C399.285339,59.626984 398.571136,59.158447 397.917542,58.341354 
	C399.546661,57.223667 401.115112,56.454536 402.803467,54.882973 
	C402.931183,47.509731 402.950073,40.938908 402.940063,34.368122 
	C402.937073,32.421158 403.339722,30.056200 400.000336,30.934425 
	C397.151489,31.601534 394.302643,32.268646 391.066406,33.026466 
	C391.984039,31.152763 389.518555,26.922915 395.616211,27.193333 
	C404.257568,27.107079 412.514313,27.107079 421.298004,27.107079 
	C420.691467,29.676844 420.214783,31.696531 419.853729,33.226173 
	C416.422791,32.104782 413.207642,31.053930 408.850433,29.629791 
	C408.850433,36.943409 408.850433,43.011578 408.944885,49.539993 
z"/>
<path fill="#264B80" opacity="1.000000" stroke="none" 
	d="
M490.405762,117.146606 
	C490.304993,116.358566 490.402771,115.687920 490.714355,113.550423 
	C491.390137,115.714157 491.631897,116.488251 491.830872,117.621292 
	C491.393463,117.741486 490.998840,117.502739 490.405762,117.146606 
z"/>
<path fill="#22487D" opacity="1.000000" stroke="none" 
	d="
M419.914917,91.192154 
	C420.351044,92.016853 420.656891,93.137314 420.894836,94.629219 
	C420.479492,93.829742 420.132050,92.658821 419.914917,91.192154 
z"/>
<path fill="#23497E" opacity="1.000000" stroke="none" 
	d="
M399.990662,31.361931 
	C403.339722,30.056200 402.937073,32.421158 402.940063,34.368122 
	C402.950073,40.938908 402.931183,47.509731 402.832428,54.541550 
	C398.371582,49.325592 399.413086,42.629951 399.271149,36.179897 
	C399.239075,34.722324 399.730560,33.253227 399.990662,31.361931 
z"/>
<path fill="#2C5084" opacity="1.000000" stroke="none" 
	d="
M650.885803,51.623299 
	C650.771118,52.178284 650.553467,52.427414 650.318848,52.659294 
	C646.664062,56.271206 638.847229,59.120564 637.127991,56.645283 
	C635.083801,53.702301 635.181274,49.271824 634.350769,45.485874 
	C634.850891,45.043480 635.351074,44.601086 635.851196,44.158691 
	C638.616760,45.059601 641.382324,45.960514 644.531128,46.827095 
	C646.867920,48.298309 648.821411,49.803856 650.885803,51.623299 
z"/>
<path fill="#365783" opacity="1.000000" stroke="none" 
	d="
M586.159302,101.915443 
	C586.158569,99.527733 586.158569,97.564751 586.158569,95.252274 
	C586.897888,95.178947 587.831787,95.025528 588.767883,95.010391 
	C589.725159,94.994904 590.684570,95.114998 591.866455,95.189896 
	C591.866455,98.662132 591.866455,101.903839 591.866455,105.468704 
	C589.085388,105.742317 585.975220,107.298248 586.159302,101.915443 
z"/>
<path fill="#345789" opacity="1.000000" stroke="none" 
	d="
M526.169312,36.226212 
	C526.036560,32.504192 526.410645,29.629248 530.815674,30.030939 
	C534.740417,30.388826 537.556885,34.118767 536.952881,38.133163 
	C536.359741,42.074745 533.029297,43.485138 526.168884,42.437778 
	C526.168884,40.566097 526.168884,38.619251 526.169312,36.226212 
z"/>
<path fill="#2E5385" opacity="1.000000" stroke="none" 
	d="
M574.915039,56.341743 
	C568.311707,57.711796 563.904541,56.123787 561.023682,50.986233 
	C557.986084,45.569321 556.336975,39.481003 560.405701,34.158901 
	C562.140747,31.889362 566.389832,30.156340 569.273071,30.441147 
	C575.108337,31.017557 578.493958,35.578911 579.631531,41.130924 
	C580.773926,46.706345 581.395386,52.511414 574.915039,56.341743 
z"/>
<path fill="#183F76" opacity="1.000000" stroke="none" 
	d="
M180.112732,113.982246 
	C185.949249,121.736649 186.487213,130.465195 186.960663,139.640091 
	C180.191254,139.640091 173.811356,139.640091 166.536713,139.640091 
	C170.675659,125.734550 158.671768,121.472359 151.016983,114.194168 
	C152.670898,113.321198 153.792572,112.729164 155.256439,111.956505 
	C153.215042,109.502014 151.756638,106.912292 149.577606,105.291214 
	C143.899994,101.067390 142.235992,94.374687 138.808655,88.787354 
	C138.236023,87.853806 138.802124,86.221741 138.842041,84.912445 
	C140.209976,85.101204 142.010956,84.811714 142.856552,85.577354 
	C144.668442,87.217903 146.208176,89.272545 147.462173,91.392548 
	C150.258286,96.119644 154.311340,99.207504 159.532791,100.361816 
	C168.077881,102.250900 174.782593,106.689720 180.112732,113.982246 
z"/>
<path fill="#183F77" opacity="1.000000" stroke="none" 
	d="
M196.818420,113.933334 
	C202.168610,106.681709 208.869568,102.249741 217.385910,100.345795 
	C222.584930,99.183479 226.705719,96.209404 229.466049,91.450851 
	C230.619049,89.463196 231.978699,87.463730 233.687607,85.980186 
	C234.694244,85.106293 236.570145,85.233665 238.055084,84.910713 
	C238.010742,86.350311 238.498413,88.124413 237.837128,89.176086 
	C232.959290,96.933571 227.852249,104.546936 222.696182,112.389938 
	C223.122696,112.527191 224.261276,112.893570 225.399872,113.259956 
	C225.918793,113.756477 226.437729,114.252991 226.956650,114.749512 
	C224.867828,116.097633 222.825500,117.525223 220.681839,118.779648 
	C212.836563,123.370552 208.020126,129.533493 210.318878,139.598816 
	C203.454483,139.598816 197.082779,139.598816 190.106445,139.598816 
	C190.226135,130.558609 191.113541,121.854820 196.818420,113.933334 
z"/>
<path fill="#183F76" opacity="1.000000" stroke="none" 
	d="
M142.469147,105.527321 
	C138.177917,98.850319 133.750641,92.642494 130.250229,85.949867 
	C126.493729,78.767601 123.591995,71.136765 120.371452,63.678265 
	C120.085609,63.016262 120.199722,62.181561 119.993378,60.008518 
	C122.269569,61.793983 123.964569,62.561359 124.799477,63.875271 
	C128.521591,69.732819 134.311310,75.522926 134.914856,81.766502 
	C135.523026,88.057907 137.808334,92.961746 140.470001,97.917046 
	C142.881165,102.406013 146.568115,106.209709 149.692566,110.315552 
	C149.357315,110.680710 149.022079,111.045868 148.686829,111.411026 
	C146.704926,109.535042 144.723022,107.659065 142.469147,105.527321 
z"/>
<path fill="#183F77" opacity="1.000000" stroke="none" 
	d="
M236.682068,97.675507 
	C238.149689,94.869957 239.418747,92.380714 240.659042,89.877235 
	C241.167450,88.851036 242.091049,87.757462 242.014282,86.756813 
	C241.282166,77.216087 247.962875,71.017494 252.273438,63.779202 
	C253.015472,62.533180 254.554504,61.761803 256.105988,60.449154 
	C257.108002,70.134018 236.145020,106.087097 225.983490,111.899055 
	C229.942780,106.647026 233.207352,102.316551 236.682068,97.675507 
z"/>
<path fill="#224779" opacity="1.000000" stroke="none" 
	d="
M204.880890,34.986366 
	C206.296997,35.476322 207.320663,36.013290 208.344315,36.550262 
	C203.407043,39.058357 213.818451,43.663433 207.055832,46.001011 
	C206.276886,46.270264 205.122589,47.293961 205.180588,47.861824 
	C205.819870,54.121841 202.561295,51.352108 199.937683,49.943756 
	C197.754135,51.594795 195.173264,56.190495 193.829178,49.485600 
	C193.739227,49.036922 192.783386,48.373058 192.329666,48.444096 
	C184.908630,49.605965 189.729126,45.222878 189.863968,42.801208 
	C187.843094,40.815304 184.714935,38.545425 190.475708,37.145237 
	C191.012177,37.014847 191.716904,35.869682 191.655029,35.266289 
	C191.299469,31.798765 192.332916,30.763092 195.507385,32.708397 
	C195.895248,32.946083 196.724396,33.148575 196.892059,32.960335 
	C200.858261,28.507759 202.421234,32.679146 204.880890,34.986366 
M201.104553,44.821712 
	C201.126495,42.788322 201.684753,40.509975 200.920105,38.835850 
	C200.590302,38.113731 197.157928,38.022404 195.822937,38.810234 
	C194.864456,39.375874 194.389465,42.104145 194.862411,43.462482 
	C195.751007,46.014580 197.936081,46.743847 201.104553,44.821712 
z"/>
<path fill="#244879" opacity="1.000000" stroke="none" 
	d="
M186.789642,25.753790 
	C187.568359,26.413830 188.370712,27.114918 188.297455,27.707785 
	C188.035095,29.830526 187.476089,31.916601 186.949921,34.389523 
	C185.663925,35.353756 183.793335,36.756332 181.529175,38.454002 
	C179.952423,38.280819 177.507462,38.012280 175.107040,37.748634 
	C173.688995,36.083614 172.083954,34.199043 170.485733,32.322460 
	C170.802597,30.360287 171.172119,28.072016 171.669281,24.993408 
	C174.462830,22.389980 178.470154,20.333538 183.921799,21.903528 
	C184.477722,22.761293 185.444656,24.253244 186.789642,25.753790 
M177.175690,26.983002 
	C177.277451,28.920065 177.379196,30.857126 177.480957,32.794193 
	C179.052460,32.381161 181.185364,32.465958 182.082184,31.454622 
	C184.143265,29.130419 182.095810,26.860018 177.175690,26.983002 
z"/>
<path fill="#23497E" opacity="1.000000" stroke="none" 
	d="
M431.760620,90.091805 
	C431.683807,92.700752 431.258392,95.361404 430.833008,98.022057 
	C430.338623,98.026649 429.844208,98.031235 429.349792,98.035820 
	C428.880554,95.956436 428.411285,93.877045 427.969452,91.398834 
	C429.135254,90.714500 430.273651,90.429001 431.760620,90.091805 
z"/>
<path fill="#2C4F7F" opacity="1.000000" stroke="none" 
	d="
M448.148682,96.492065 
	C449.850403,95.654083 451.518219,95.269135 453.695251,94.766655 
	C453.695251,104.119316 453.695251,112.826332 453.695251,121.771820 
	C452.005585,121.771820 450.400970,121.771820 448.114807,121.771820 
	C448.114807,113.485092 448.114807,105.215096 448.148682,96.492065 
z"/>
<path fill="#EAD099" opacity="1.000000" stroke="none" 
	d="
M200.790436,45.022232 
	C197.936081,46.743847 195.751007,46.014580 194.862411,43.462482 
	C194.389465,42.104145 194.864456,39.375874 195.822937,38.810234 
	C197.157928,38.022404 200.590302,38.113731 200.920105,38.835850 
	C201.684753,40.509975 201.126495,42.788322 200.790436,45.022232 
z"/>
<path fill="#E5CC98" opacity="1.000000" stroke="none" 
	d="
M177.501648,26.781593 
	C182.095810,26.860018 184.143265,29.130419 182.082184,31.454622 
	C181.185364,32.465958 179.052460,32.381161 177.480957,32.794189 
	C177.379196,30.857126 177.277451,28.920065 177.501648,26.781593 
z"/>
</svg>